<svg width="312" height="51" viewBox="0 0 312 51" fill="none" xmlns="http://www.w3.org/2000/svg">
<g clip-path="url(#clip0_3_12)">
<path d="M286.5 0.0780029H25.5C11.4598 0.0780029 0.0780029 11.4598 0.0780029 25.5C0.0780029 39.5402 11.4598 50.922 25.5 50.922H286.5C300.54 50.922 311.922 39.5402 311.922 25.5C311.922 11.4598 300.54 0.0780029 286.5 0.0780029Z" fill="url(#paint0_radial_3_12)" stroke="url(#paint1_linear_3_12)" stroke-width="0.156"/>
<path d="M281.92 5.41998H30.0803C18.9904 5.41998 10.0003 14.4101 10.0003 25.5C10.0003 36.5899 18.9904 45.58 30.0803 45.58H281.92C293.01 45.58 302 36.5899 302 25.5C302 14.4101 293.01 5.41998 281.92 5.41998Z" fill="url(#paint2_linear_3_12)" stroke="url(#paint3_linear_3_12)" stroke-width="2.34"/>
<path d="M281.92 5.03003H30.0803C18.7751 5.03003 9.61032 14.1948 9.61032 25.5C9.61032 36.8053 18.7751 45.97 30.0803 45.97H281.92C293.226 45.97 302.39 36.8053 302.39 25.5C302.39 14.1948 293.226 5.03003 281.92 5.03003Z" stroke="url(#paint4_linear_3_12)" stroke-width="1.56"/>
<g filter="url(#filter0_d_3_12)">
<path d="M41.1429 30.8095H38.2597V19.6116H34.5673V17.212H44.8352V19.6116H41.1429V30.8095ZM50.9922 20.2161C51.9532 20.2161 52.781 20.4021 53.4754 20.7742C54.1699 21.14 54.7062 21.6732 55.0844 22.3739C55.4627 23.0745 55.6518 23.9302 55.6518 24.9408V26.3173H48.9461C48.9771 27.1172 49.2158 27.7465 49.6622 28.2053C50.1148 28.658 50.7411 28.8843 51.5409 28.8843C52.2044 28.8843 52.812 28.8161 53.3638 28.6797C53.9157 28.5433 54.483 28.3387 55.0658 28.0658V30.2608C54.5512 30.515 54.0118 30.701 53.4475 30.8188C52.8895 30.9366 52.2106 30.9955 51.4107 30.9955C50.369 30.9955 49.4452 30.8033 48.6391 30.4189C47.8393 30.0345 47.2099 29.4485 46.7511 28.6611C46.2985 27.8736 46.0722 26.8816 46.0722 25.6849C46.0722 24.4696 46.2768 23.4589 46.686 22.6529C47.1014 21.8406 47.6781 21.233 48.4159 20.83C49.1538 20.4207 50.0125 20.2161 50.9922 20.2161ZM51.0108 22.2344C50.459 22.2344 50.0001 22.4111 49.6343 22.7645C49.2747 23.1179 49.067 23.6729 49.0112 24.4293H52.9918C52.9856 24.0077 52.9081 23.6326 52.7593 23.3039C52.6167 22.9753 52.3997 22.7149 52.1083 22.5227C51.823 22.3305 51.4572 22.2344 51.0108 22.2344ZM60.795 30.8095H57.9583V16.3378H60.795V30.8095ZM68.0681 20.2161C69.0291 20.2161 69.8569 20.4021 70.5513 20.7742C71.2458 21.14 71.7821 21.6732 72.1603 22.3739C72.5386 23.0745 72.7277 23.9302 72.7277 24.9408V26.3173H66.022C66.053 27.1172 66.2917 27.7465 66.7381 28.2053C67.1907 28.658 67.817 28.8843 68.6168 28.8843C69.2803 28.8843 69.8879 28.8161 70.4397 28.6797C70.9916 28.5433 71.5589 28.3387 72.1417 28.0658V30.2608C71.6271 30.515 71.0877 30.701 70.5234 30.8188C69.9654 30.9366 69.2865 30.9955 68.4866 30.9955C67.4449 30.9955 66.5211 30.8033 65.715 30.4189C64.9152 30.0345 64.2858 29.4485 63.827 28.6611C63.3744 27.8736 63.1481 26.8816 63.1481 25.6849C63.1481 24.4696 63.3527 23.4589 63.7619 22.6529C64.1773 21.8406 64.754 21.233 65.4918 20.83C66.2297 20.4207 67.0884 20.2161 68.0681 20.2161ZM68.0867 22.2344C67.5348 22.2344 67.076 22.4111 66.7102 22.7645C66.3506 23.1179 66.1429 23.6729 66.0871 24.4293H70.0677C70.0615 24.0077 69.984 23.6326 69.8352 23.3039C69.6926 22.9753 69.4756 22.7149 69.1842 22.5227C68.8989 22.3305 68.5331 22.2344 68.0867 22.2344ZM79.2567 30.9955C78.2274 30.9955 77.3501 30.8095 76.6246 30.4375C75.8992 30.0593 75.3473 29.4764 74.9691 28.689C74.5909 27.9015 74.4018 26.894 74.4018 25.6663C74.4018 24.3952 74.6157 23.3597 75.0435 22.5599C75.4776 21.7538 76.0759 21.1617 76.8385 20.7835C77.6074 20.4052 78.4971 20.2161 79.5078 20.2161C80.2271 20.2161 80.8471 20.2874 81.3679 20.43C81.895 20.5665 82.3538 20.7308 82.7444 20.923L81.9074 23.1179C81.4609 22.9381 81.0455 22.7924 80.6611 22.6808C80.2767 22.563 79.8922 22.5041 79.5078 22.5041C79.0118 22.5041 78.5995 22.6219 78.2708 22.8575C77.9422 23.0869 77.6973 23.4341 77.5361 23.8992C77.3749 24.3642 77.2943 24.947 77.2943 25.6477C77.2943 26.3359 77.3811 26.9064 77.5547 27.359C77.7283 27.8116 77.9794 28.1495 78.308 28.3728C78.6367 28.5898 79.0366 28.6983 79.5078 28.6983C80.0969 28.6983 80.6208 28.6208 81.0796 28.4658C81.5384 28.3045 81.9849 28.0813 82.4189 27.7961V30.2236C81.9849 30.4964 81.5291 30.6917 81.0517 30.8095C80.5805 30.9335 79.9821 30.9955 79.2567 30.9955ZM87.6737 16.3378V19.2861C87.6737 19.8007 87.6551 20.2905 87.6179 20.7556C87.5869 21.2206 87.5621 21.5492 87.5435 21.7414H87.6923C87.9155 21.3818 88.1791 21.0904 88.4829 20.8672C88.7929 20.644 89.1339 20.4796 89.506 20.3742C89.878 20.2688 90.2779 20.2161 90.7057 20.2161C91.456 20.2161 92.1101 20.3494 92.6682 20.6161C93.2262 20.8765 93.6602 21.2888 93.9702 21.853C94.2803 22.4111 94.4353 23.1365 94.4353 24.0294V30.8095H91.5986V24.7362C91.5986 23.9922 91.4622 23.431 91.1894 23.0528C90.9165 22.6746 90.4949 22.4855 89.9245 22.4855C89.354 22.4855 88.9045 22.6188 88.5759 22.8854C88.2473 23.1458 88.0148 23.5333 87.8783 24.048C87.7419 24.5564 87.6737 25.1795 87.6737 25.9174V30.8095H84.8371V16.3378H87.6737ZM101.615 20.1975C103.01 20.1975 104.08 20.5013 104.824 21.109C105.568 21.7166 105.94 22.6405 105.94 23.8806V30.8095H103.959L103.41 29.3958H103.336C103.038 29.7678 102.735 30.0717 102.424 30.3073C102.114 30.5429 101.758 30.7165 101.355 30.8281C100.952 30.9397 100.462 30.9955 99.8854 30.9955C99.2716 30.9955 98.7197 30.8777 98.2299 30.6421C97.7463 30.4065 97.365 30.0469 97.0859 29.5632C96.8069 29.0734 96.6674 28.4534 96.6674 27.7031C96.6674 26.5994 97.0549 25.7872 97.83 25.2664C98.605 24.7393 99.7676 24.4479 101.318 24.3921L103.122 24.3363V23.8806C103.122 23.3349 102.979 22.935 102.694 22.6808C102.409 22.4266 102.012 22.2995 101.504 22.2995C101.001 22.2995 100.509 22.3708 100.025 22.5134C99.5413 22.656 99.0577 22.8358 98.574 23.0528L97.6347 21.1369C98.1865 20.8455 98.8034 20.6161 99.4855 20.4486C100.174 20.2812 100.884 20.1975 101.615 20.1975ZM103.122 25.9918L102.025 26.029C101.107 26.0538 100.468 26.2181 100.109 26.5219C99.7552 26.8258 99.5785 27.2257 99.5785 27.7217C99.5785 28.1557 99.7056 28.4658 99.9598 28.6518C100.214 28.8316 100.546 28.9215 100.955 28.9215C101.563 28.9215 102.074 28.7417 102.49 28.3821C102.911 28.0224 103.122 27.5109 103.122 26.8475V25.9918ZM114.673 20.2161C114.816 20.2161 114.98 20.2254 115.166 20.244C115.359 20.2564 115.514 20.275 115.631 20.2998L115.417 22.9598C115.324 22.9288 115.191 22.9071 115.017 22.8947C114.85 22.8761 114.704 22.8668 114.58 22.8668C114.215 22.8668 113.858 22.9133 113.511 23.0063C113.17 23.0993 112.863 23.2512 112.59 23.462C112.317 23.6667 112.1 23.9395 111.939 24.2805C111.784 24.6153 111.706 25.0276 111.706 25.5175V30.8095H108.87V20.4114H111.018L111.437 22.16H111.576C111.781 21.8065 112.035 21.4841 112.339 21.1927C112.649 20.8951 112.999 20.6595 113.39 20.4858C113.787 20.306 114.215 20.2161 114.673 20.2161ZM120.561 35.3854C119.11 35.3854 118 35.1312 117.231 34.6228C116.468 34.1205 116.087 33.4137 116.087 32.5022C116.087 31.876 116.282 31.352 116.673 30.9304C117.064 30.5088 117.637 30.2081 118.394 30.0283C118.102 29.9043 117.848 29.7027 117.631 29.4237C117.414 29.1385 117.305 28.8378 117.305 28.5216C117.305 28.1247 117.42 27.7961 117.65 27.5357C117.879 27.2691 118.211 27.0087 118.645 26.7544C118.099 26.5188 117.665 26.1406 117.343 25.6198C117.026 25.0989 116.868 24.4851 116.868 23.7783C116.868 23.0218 117.033 22.3801 117.361 21.853C117.696 21.3198 118.18 20.9137 118.812 20.6347C119.451 20.3556 120.226 20.2161 121.137 20.2161C121.329 20.2161 121.553 20.2285 121.807 20.2533C122.061 20.2781 122.294 20.306 122.504 20.337C122.721 20.368 122.867 20.3928 122.942 20.4114H126.569V21.853L124.941 22.2716C125.09 22.501 125.202 22.7459 125.276 23.0063C125.35 23.2667 125.388 23.5426 125.388 23.8341C125.388 24.9501 124.997 25.8213 124.216 26.4475C123.441 27.0676 122.362 27.3776 120.979 27.3776C120.651 27.359 120.341 27.3342 120.049 27.3032C119.906 27.4148 119.798 27.5326 119.724 27.6566C119.649 27.7806 119.612 27.9108 119.612 28.0472C119.612 28.1836 119.668 28.2983 119.779 28.3914C119.897 28.4782 120.071 28.5464 120.3 28.596C120.536 28.6394 120.827 28.6611 121.174 28.6611H122.942C124.082 28.6611 124.951 28.906 125.546 29.3958C126.147 29.8857 126.448 30.6049 126.448 31.5536C126.448 32.7688 125.939 33.7113 124.923 34.3809C123.912 35.0506 122.458 35.3854 120.561 35.3854ZM120.682 33.5346C121.357 33.5346 121.937 33.4695 122.421 33.3393C122.911 33.2153 123.286 33.0355 123.546 32.7998C123.807 32.5704 123.937 32.2945 123.937 31.9721C123.937 31.7117 123.859 31.504 123.704 31.3489C123.555 31.2001 123.326 31.0947 123.016 31.0327C122.712 30.9707 122.322 30.9397 121.844 30.9397H120.375C120.027 30.9397 119.714 30.9955 119.435 31.1071C119.162 31.2187 118.945 31.3737 118.784 31.5722C118.623 31.7768 118.542 32.0124 118.542 32.279C118.542 32.6696 118.728 32.9765 119.1 33.1998C119.479 33.423 120.006 33.5346 120.682 33.5346ZM121.137 25.6477C121.671 25.6477 122.061 25.4834 122.309 25.1547C122.557 24.8261 122.681 24.3797 122.681 23.8155C122.681 23.1892 122.551 22.7211 122.291 22.4111C122.036 22.0949 121.652 21.9367 121.137 21.9367C120.616 21.9367 120.226 22.0949 119.965 22.4111C119.705 22.7211 119.575 23.1892 119.575 23.8155C119.575 24.3797 119.702 24.8261 119.956 25.1547C120.217 25.4834 120.61 25.6477 121.137 25.6477ZM132.577 20.2161C133.538 20.2161 134.366 20.4021 135.06 20.7742C135.755 21.14 136.291 21.6732 136.669 22.3739C137.047 23.0745 137.237 23.9302 137.237 24.9408V26.3173H130.531C130.562 27.1172 130.801 27.7465 131.247 28.2053C131.7 28.658 132.326 28.8843 133.126 28.8843C133.789 28.8843 134.397 28.8161 134.949 28.6797C135.5 28.5433 136.068 28.3387 136.651 28.0658V30.2608C136.136 30.515 135.597 30.701 135.032 30.8188C134.474 30.9366 133.795 30.9955 132.996 30.9955C131.954 30.9955 131.03 30.8033 130.224 30.4189C129.424 30.0345 128.795 29.4485 128.336 28.6611C127.883 27.8736 127.657 26.8816 127.657 25.6849C127.657 24.4696 127.862 23.4589 128.271 22.6529C128.686 21.8406 129.263 21.233 130.001 20.83C130.739 20.4207 131.597 20.2161 132.577 20.2161ZM132.596 22.2344C132.044 22.2344 131.585 22.4111 131.219 22.7645C130.859 23.1179 130.652 23.6729 130.596 24.4293H134.577C134.57 24.0077 134.493 23.6326 134.344 23.3039C134.202 22.9753 133.984 22.7149 133.693 22.5227C133.408 22.3305 133.042 22.2344 132.596 22.2344ZM145.347 20.2161C145.489 20.2161 145.654 20.2254 145.84 20.244C146.032 20.2564 146.187 20.275 146.305 20.2998L146.091 22.9598C145.998 22.9288 145.864 22.9071 145.691 22.8947C145.523 22.8761 145.378 22.8668 145.254 22.8668C144.888 22.8668 144.531 22.9133 144.184 23.0063C143.843 23.0993 143.536 23.2512 143.263 23.462C142.991 23.6667 142.774 23.9395 142.612 24.2805C142.457 24.6153 142.38 25.0276 142.38 25.5175V30.8095H139.543V20.4114H141.692L142.11 22.16H142.25C142.454 21.8065 142.708 21.4841 143.012 21.1927C143.322 20.8951 143.673 20.6595 144.063 20.4858C144.46 20.306 144.888 20.2161 145.347 20.2161ZM153.364 30.8095V17.212H156.247V28.4286H161.762V30.8095H153.364ZM168.198 20.2161C169.159 20.2161 169.987 20.4021 170.682 20.7742C171.376 21.14 171.912 21.6732 172.291 22.3739C172.669 23.0745 172.858 23.9302 172.858 24.9408V26.3173H166.152C166.183 27.1172 166.422 27.7465 166.868 28.2053C167.321 28.658 167.947 28.8843 168.747 28.8843C169.41 28.8843 170.018 28.8161 170.57 28.6797C171.122 28.5433 171.689 28.3387 172.272 28.0658V30.2608C171.757 30.515 171.218 30.701 170.654 30.8188C170.096 30.9366 169.417 30.9955 168.617 30.9955C167.575 30.9955 166.651 30.8033 165.845 30.4189C165.045 30.0345 164.416 29.4485 163.957 28.6611C163.505 27.8736 163.278 26.8816 163.278 25.6849C163.278 24.4696 163.483 23.4589 163.892 22.6529C164.308 21.8406 164.884 21.233 165.622 20.83C166.36 20.4207 167.219 20.2161 168.198 20.2161ZM168.217 22.2344C167.665 22.2344 167.206 22.4111 166.84 22.7645C166.481 23.1179 166.273 23.6729 166.217 24.4293H170.198C170.192 24.0077 170.114 23.6326 169.965 23.3039C169.823 22.9753 169.606 22.7149 169.314 22.5227C169.029 22.3305 168.663 22.2344 168.217 22.2344ZM183.172 30.8095H180.336V17.212H188.129V19.5744H183.172V23.0807H187.785V25.4338H183.172V30.8095ZM200.016 25.5919C200.016 26.4599 199.898 27.2288 199.662 27.8984C199.433 28.5681 199.095 29.1354 198.648 29.6004C198.208 30.0593 197.675 30.4065 197.049 30.6421C196.429 30.8777 195.728 30.9955 194.947 30.9955C194.215 30.9955 193.542 30.8777 192.929 30.6421C192.321 30.4065 191.791 30.0593 191.338 29.6004C190.892 29.1354 190.545 28.5681 190.297 27.8984C190.055 27.2288 189.934 26.4599 189.934 25.5919C189.934 24.4386 190.138 23.462 190.548 22.6622C190.957 21.8623 191.54 21.2547 192.296 20.8393C193.053 20.4238 193.955 20.2161 195.003 20.2161C195.976 20.2161 196.838 20.4238 197.588 20.8393C198.345 21.2547 198.937 21.8623 199.365 22.6622C199.799 23.462 200.016 24.4386 200.016 25.5919ZM192.826 25.5919C192.826 26.2739 192.901 26.8475 193.049 27.3125C193.198 27.7775 193.431 28.1278 193.747 28.3635C194.063 28.5991 194.476 28.7169 194.984 28.7169C195.486 28.7169 195.892 28.5991 196.202 28.3635C196.519 28.1278 196.748 27.7775 196.891 27.3125C197.039 26.8475 197.114 26.2739 197.114 25.5919C197.114 24.9036 197.039 24.3332 196.891 23.8806C196.748 23.4217 196.519 23.0776 196.202 22.8482C195.886 22.6188 195.474 22.5041 194.965 22.5041C194.215 22.5041 193.67 22.7614 193.328 23.276C192.994 23.7907 192.826 24.5626 192.826 25.5919ZM208.163 20.2161C208.306 20.2161 208.47 20.2254 208.656 20.244C208.848 20.2564 209.003 20.275 209.121 20.2998L208.907 22.9598C208.814 22.9288 208.681 22.9071 208.507 22.8947C208.34 22.8761 208.194 22.8668 208.07 22.8668C207.704 22.8668 207.348 22.9133 207 23.0063C206.659 23.0993 206.352 23.2512 206.08 23.462C205.807 23.6667 205.59 23.9395 205.429 24.2805C205.274 24.6153 205.196 25.0276 205.196 25.5175V30.8095H202.359V20.4114H204.508L204.926 22.16H205.066C205.27 21.8065 205.525 21.4841 205.828 21.1927C206.139 20.8951 206.489 20.6595 206.879 20.4858C207.276 20.306 207.704 20.2161 208.163 20.2161ZM223.221 20.2161C224.399 20.2161 225.288 20.52 225.89 21.1276C226.498 21.729 226.801 22.6963 226.801 24.0294V30.8095H223.955V24.7362C223.955 23.9922 223.828 23.431 223.574 23.0528C223.32 22.6746 222.926 22.4855 222.393 22.4855C221.643 22.4855 221.109 22.7552 220.793 23.2946C220.477 23.8279 220.319 24.5936 220.319 25.5919V30.8095H217.482V24.7362C217.482 24.2402 217.426 23.8248 217.315 23.4899C217.203 23.1551 217.033 22.904 216.803 22.7366C216.574 22.5692 216.279 22.4855 215.92 22.4855C215.393 22.4855 214.977 22.6188 214.673 22.8854C214.376 23.1458 214.162 23.5333 214.032 24.048C213.908 24.5564 213.846 25.1795 213.846 25.9174V30.8095H211.009V20.4114H213.176L213.557 21.7414H213.715C213.926 21.3818 214.19 21.0904 214.506 20.8672C214.828 20.644 215.182 20.4796 215.566 20.3742C215.951 20.2688 216.341 20.2161 216.738 20.2161C217.501 20.2161 218.146 20.3401 218.673 20.5882C219.206 20.8362 219.615 21.2206 219.9 21.7414H220.151C220.461 21.2082 220.899 20.8207 221.463 20.5789C222.033 20.337 222.619 20.2161 223.221 20.2161ZM239.264 20.4114V30.8095H237.088L236.706 29.4795H236.558C236.334 29.8329 236.055 30.1213 235.721 30.3445C235.386 30.5677 235.017 30.732 234.614 30.8374C234.211 30.9428 233.792 30.9955 233.358 30.9955C232.614 30.9955 231.966 30.8653 231.414 30.6049C230.863 30.3383 230.432 29.926 230.122 29.3679C229.818 28.8099 229.666 28.0844 229.666 27.1916V20.4114H232.503V26.4847C232.503 27.2288 232.636 27.7899 232.903 28.1681C233.169 28.5464 233.594 28.7355 234.177 28.7355C234.753 28.7355 235.206 28.6053 235.535 28.3449C235.863 28.0782 236.093 27.6907 236.223 27.1823C236.359 26.6676 236.427 26.0414 236.427 25.3036V20.4114H239.264ZM245.077 30.8095H242.24V16.3378H245.077V30.8095ZM252.322 20.1975C253.717 20.1975 254.787 20.5013 255.531 21.109C256.275 21.7166 256.647 22.6405 256.647 23.8806V30.8095H254.666L254.117 29.3958H254.043C253.745 29.7678 253.441 30.0717 253.131 30.3073C252.821 30.5429 252.465 30.7165 252.062 30.8281C251.659 30.9397 251.169 30.9955 250.592 30.9955C249.978 30.9955 249.427 30.8777 248.937 30.6421C248.453 30.4065 248.072 30.0469 247.793 29.5632C247.514 29.0734 247.374 28.4534 247.374 27.7031C247.374 26.5994 247.762 25.7872 248.537 25.2664C249.312 24.7393 250.474 24.4479 252.025 24.3921L253.829 24.3363V23.8806C253.829 23.3349 253.686 22.935 253.401 22.6808C253.116 22.4266 252.719 22.2995 252.211 22.2995C251.708 22.2995 251.215 22.3708 250.732 22.5134C250.248 22.656 249.765 22.8358 249.281 23.0528L248.342 21.1369C248.893 20.8455 249.51 20.6161 250.192 20.4486C250.881 20.2812 251.591 20.1975 252.322 20.1975ZM253.829 25.9918L252.731 26.029C251.814 26.0538 251.175 26.2181 250.815 26.5219C250.462 26.8258 250.285 27.2257 250.285 27.7217C250.285 28.1557 250.412 28.4658 250.667 28.6518C250.921 28.8316 251.253 28.9215 251.662 28.9215C252.269 28.9215 252.781 28.7417 253.196 28.3821C253.618 28.0224 253.829 27.5109 253.829 26.8475V25.9918ZM262.413 20.4114V30.8095H259.577V20.4114H262.413ZM261 16.3378C261.421 16.3378 261.784 16.437 262.088 16.6354C262.392 16.8276 262.544 17.1903 262.544 17.7236C262.544 18.2506 262.392 18.6164 262.088 18.821C261.784 19.0195 261.421 19.1187 261 19.1187C260.572 19.1187 260.206 19.0195 259.902 18.821C259.605 18.6164 259.456 18.2506 259.456 17.7236C259.456 17.1903 259.605 16.8276 259.902 16.6354C260.206 16.437 260.572 16.3378 261 16.3378ZM271.202 20.2161C271.345 20.2161 271.509 20.2254 271.695 20.244C271.888 20.2564 272.043 20.275 272.16 20.2998L271.946 22.9598C271.853 22.9288 271.72 22.9071 271.546 22.8947C271.379 22.8761 271.233 22.8668 271.109 22.8668C270.744 22.8668 270.387 22.9133 270.04 23.0063C269.699 23.0993 269.392 23.2512 269.119 23.462C268.846 23.6667 268.629 23.9395 268.468 24.2805C268.313 24.6153 268.235 25.0276 268.235 25.5175V30.8095H265.399V20.4114H267.547L267.966 22.16H268.105C268.31 21.8065 268.564 21.4841 268.868 21.1927C269.178 20.8951 269.528 20.6595 269.919 20.4858C270.316 20.306 270.744 20.2161 271.202 20.2161ZM278.336 20.2161C279.297 20.2161 280.125 20.4021 280.819 20.7742C281.514 21.14 282.05 21.6732 282.428 22.3739C282.806 23.0745 282.996 23.9302 282.996 24.9408V26.3173H276.29C276.321 27.1172 276.56 27.7465 277.006 28.2053C277.459 28.658 278.085 28.8843 278.885 28.8843C279.548 28.8843 280.156 28.8161 280.708 28.6797C281.259 28.5433 281.827 28.3387 282.41 28.0658V30.2608C281.895 30.515 281.356 30.701 280.791 30.8188C280.233 30.9366 279.554 30.9955 278.754 30.9955C277.713 30.9955 276.789 30.8033 275.983 30.4189C275.183 30.0345 274.554 29.4485 274.095 28.6611C273.642 27.8736 273.416 26.8816 273.416 25.6849C273.416 24.4696 273.621 23.4589 274.03 22.6529C274.445 21.8406 275.022 21.233 275.76 20.83C276.498 20.4207 277.356 20.2161 278.336 20.2161ZM278.355 22.2344C277.803 22.2344 277.344 22.4111 276.978 22.7645C276.618 23.1179 276.411 23.6729 276.355 24.4293H280.336C280.329 24.0077 280.252 23.6326 280.103 23.3039C279.96 22.9753 279.743 22.7149 279.452 22.5227C279.167 22.3305 278.801 22.2344 278.355 22.2344Z" fill="white"/>
</g>
</g>
<defs>
<filter id="filter0_d_3_12" x="33.3768" y="16.3378" width="250.81" height="21.4286" filterUnits="userSpaceOnUse" color-interpolation-filters="sRGB">
<feFlood flood-opacity="0" result="BackgroundImageFix"/>
<feColorMatrix in="SourceAlpha" type="matrix" values="0 0 0 0 0 0 0 0 0 0 0 0 0 0 0 0 0 0 127 0" result="hardAlpha"/>
<feOffset dy="1.19048"/>
<feGaussianBlur stdDeviation="0.595238"/>
<feComposite in2="hardAlpha" operator="out"/>
<feColorMatrix type="matrix" values="0 0 0 0 0 0 0 0 0 0 0 0 0 0 0 0 0 0 0.4 0"/>
<feBlend mode="normal" in2="BackgroundImageFix" result="effect1_dropShadow_3_12"/>
<feBlend mode="normal" in="SourceGraphic" in2="effect1_dropShadow_3_12" result="shape"/>
</filter>
<radialGradient id="paint0_radial_3_12" cx="0" cy="0" r="1" gradientUnits="userSpaceOnUse" gradientTransform="translate(156 25.5) rotate(90) scale(25.5 189.418)">
<stop offset="0.711316" stop-color="#ED6C0B"/>
<stop offset="1" stop-color="#F39B10"/>
</radialGradient>
<linearGradient id="paint1_linear_3_12" x1="20.6038" y1="2.34962e-06" x2="187.584" y2="150.405" gradientUnits="userSpaceOnUse">
<stop stop-color="#E6A121"/>
<stop offset="1" stop-color="#E6A121" stop-opacity="0"/>
</linearGradient>
<linearGradient id="paint2_linear_3_12" x1="2.94355" y1="12.0417" x2="264.321" y2="185.26" gradientUnits="userSpaceOnUse">
<stop stop-color="#ED6C0B"/>
<stop offset="0.0932979" stop-color="#F5A613"/>
<stop offset="0.230387" stop-color="#E4780B"/>
<stop offset="0.678823" stop-color="#F5A813"/>
<stop offset="0.799224" stop-color="#DD7B2C"/>
<stop offset="0.835628" stop-color="#F3AA50"/>
</linearGradient>
<linearGradient id="paint3_linear_3_12" x1="156" y1="4.24998" x2="156" y2="46.75" gradientUnits="userSpaceOnUse">
<stop stop-color="white" stop-opacity="0.59"/>
<stop offset="0.552083" stop-color="white" stop-opacity="0.705938"/>
<stop offset="1" stop-color="white" stop-opacity="0.8"/>
</linearGradient>
<linearGradient id="paint4_linear_3_12" x1="156" y1="4.25003" x2="156" y2="46.75" gradientUnits="userSpaceOnUse">
<stop offset="0.0894782" stop-color="white"/>
<stop offset="0.253047" stop-color="white"/>
<stop offset="0.99481" stop-color="white"/>
</linearGradient>
<clipPath id="clip0_3_12">
<rect width="312" height="51" fill="white"/>
</clipPath>
</defs>
</svg>
