<?xml version="1.0" encoding="UTF-8"?> <!-- Generator: Adobe Illustrator 16.0.0, SVG Export Plug-In . SVG Version: 6.00 Build 0) --> <svg xmlns="http://www.w3.org/2000/svg" xmlns:xlink="http://www.w3.org/1999/xlink" id="Layer_1" x="0px" y="0px" width="71px" height="75.529px" viewBox="0 0 71 75.529" xml:space="preserve"> <g> <path fill="#3577A0" d="M0.99,68.991c2.411-3.566,7.119-2.612,9.385-1.885c1,0.323,2.038,0.508,3.087,0.55l3.32,0.127 c0,0-2.128,3.526,1.393,6.416l-10.138,1.04l-2.231,0.229c-1.66,0.208-3.958-0.085-4.984-1.407C0.34,73.443-0.01,72.672,0,71.749 l0,0C0.009,70.948,0.29,70.029,0.99,68.991z"></path> <path fill="#F4F4F4" d="M7.832,68.607c0,0,0.036,1.147,0.206,2.326c0.119,0.824,0.461,2.292,0.461,2.292 c0.022,0.156-0.048,0.293-0.156,0.31l-0.097,0.014c-0.108,0.016-0.195-0.104-0.236-0.252c0,0-0.261-0.921-0.459-2.291 c-0.212-1.469-0.208-2.329-0.208-2.329c0.003-0.193,0.048-0.292,0.156-0.307l0.098-0.016C7.704,68.337,7.811,68.453,7.832,68.607z"></path> <path fill="#F4F4F4" d="M6.594,68.763c0,0,0.035,1.148,0.205,2.328c0.118,0.824,0.461,2.293,0.461,2.293 c0.021,0.152-0.048,0.291-0.155,0.308l-0.099,0.014c-0.107,0.017-0.193-0.103-0.236-0.252c0,0-0.26-0.919-0.458-2.291 c-0.211-1.47-0.208-2.327-0.208-2.327c0.003-0.194,0.047-0.294,0.156-0.311l0.098-0.014C6.465,68.498,6.571,68.61,6.594,68.763z"></path> <path fill="#F4F4F4" d="M5.349,68.869c0,0,0.035,1.148,0.205,2.329c0.119,0.822,0.461,2.29,0.461,2.29 c0.022,0.155-0.047,0.293-0.156,0.31l-0.098,0.014c-0.108,0.015-0.195-0.103-0.237-0.25c0,0-0.261-0.922-0.458-2.292 C4.855,69.8,4.859,68.94,4.859,68.94c0.002-0.192,0.047-0.293,0.155-0.308l0.098-0.016C5.22,68.603,5.327,68.714,5.349,68.869z"></path> <path fill="#D2A140" d="M0,71.749L0,71.749c1.537,2.596,8.038,3.49,8.038,3.49l-2.231,0.229c-1.66,0.208-3.958-0.085-4.984-1.407 C0.34,73.443-0.01,72.672,0,71.749z"></path> <path fill="#3577A0" d="M70.01,68.991c-2.409-3.566-7.118-2.612-9.385-1.885c-1.001,0.323-2.038,0.508-3.087,0.55l-3.322,0.127 c0,0,2.13,3.526-1.392,6.416l10.139,1.04l2.232,0.229c1.659,0.208,3.956-0.085,4.983-1.407c0.482-0.618,0.832-1.389,0.821-2.313 l0,0C70.991,70.948,70.711,70.029,70.01,68.991z"></path> <path fill="#F4F4F4" d="M63.167,68.607c0,0-0.034,1.147-0.204,2.326c-0.12,0.824-0.461,2.292-0.461,2.292 c-0.024,0.156,0.048,0.293,0.154,0.31l0.099,0.014c0.108,0.016,0.194-0.104,0.236-0.252c0,0,0.261-0.921,0.457-2.291 c0.213-1.469,0.211-2.329,0.211-2.329c-0.005-0.193-0.05-0.292-0.157-0.307l-0.099-0.016 C63.296,68.337,63.189,68.453,63.167,68.607z"></path> <path fill="#F4F4F4" d="M64.407,68.763c0,0-0.035,1.148-0.206,2.328c-0.117,0.824-0.46,2.293-0.46,2.293 c-0.022,0.152,0.048,0.291,0.155,0.308l0.099,0.014c0.106,0.017,0.193-0.103,0.235-0.252c0,0,0.262-0.919,0.459-2.291 c0.211-1.47,0.208-2.327,0.208-2.327c-0.004-0.194-0.049-0.294-0.155-0.311l-0.1-0.014C64.535,68.498,64.429,68.61,64.407,68.763z"></path> <path fill="#F4F4F4" d="M65.651,68.869c0,0-0.035,1.148-0.205,2.329c-0.119,0.822-0.461,2.29-0.461,2.29 c-0.022,0.155,0.047,0.293,0.155,0.31l0.099,0.014c0.107,0.015,0.194-0.103,0.235-0.25c0,0,0.261-0.922,0.459-2.292 c0.212-1.469,0.208-2.329,0.208-2.329c-0.003-0.192-0.047-0.293-0.155-0.308l-0.098-0.016 C65.78,68.603,65.674,68.714,65.651,68.869z"></path> <path fill="#D2A140" d="M71,71.749L71,71.749c-1.536,2.596-8.037,3.49-8.037,3.49l2.232,0.229c1.659,0.208,3.956-0.085,4.983-1.407 C70.661,73.443,71.011,72.672,71,71.749z"></path> <path fill="#7EBAE6" d="M56.279,56.209c0,0,7.088-0.771,8.511,3.298c0,0,2.521,4.272-2.754,7.053c0,0-32.889,6.793-44.996,7.72 c0,0-2.233-5.167-1.915-7.539C15.125,66.741,53.207,56.408,56.279,56.209z"></path> <path fill="#7EBAE6" d="M14.809,56.209c0,0-7.087-0.771-8.51,3.298c0,0-2.522,4.272,2.754,7.053c0,0,32.887,6.793,44.994,7.72 c0,0,2.234-5.167,1.916-7.539C55.963,66.741,17.881,56.408,14.809,56.209z"></path> <path fill="#DDB99D" d="M45.974,29.977l-4.48-1.654c-3.355-1.104-2.633-3.035-2.633-3.035h-3.449h-0.054h-3.449 c0,0,0.722,1.931-2.633,3.035l-4.48,1.655l10.59,1.274L45.974,29.977z"></path> <path fill="#112E4D" d="M29.292,27.926c0.006,0,0.015,0,0.021-0.001l1.96,10.118l0.013,0.069l1.587,8.182L33.43,59.53h3.44 l0.792-12.742l1.675-8.645l1.959-10.129c-0.413-0.222-0.976-0.452-1.508-0.535c0,0,0.378,2.734-3.918,2.844 c-4.828,0.123-4.89-2.844-4.89-2.844c-0.594,0.061-1.158,0.288-1.712,0.448c0.008,0,0.016,0,0.024-0.001V27.926z"></path> <path fill="#7EBAE6" d="M55.698,47.734l-2.807-10.651c-1.801-7.189-11.682-9.146-11.682-9.146l-5.948,30.562l-5.756-30.644 c0,0-10.074,2.039-11.874,9.228l-2.807,10.651c0,0-0.581,2.175-0.115,5.162c0.196,1.254,0.699,2.442,1.463,3.459l2.284,3.038 l4.832-1.057l-2.929-4.997c0,0,0.013-2.063,0.429-3.211l2.498-6.034l0.975,9.645l0.427,7.285h10.557h0.036h10.559l0.427-7.285 l0.973-9.645l2.498,6.034c0.416,1.148,0.431,3.211,0.431,3.211l-2.931,4.997l4.833,1.057l2.282-3.038 c0.765-1.017,1.268-2.205,1.463-3.459C56.279,49.909,55.698,47.734,55.698,47.734z"></path> <path fill="#F4F4F4" d="M53.056,62.425H18.343c-0.948,0-1.717-0.769-1.717-1.718V40.14c0-0.95,0.77-1.718,1.717-1.718h34.712 c0.948,0,1.718,0.768,1.718,1.718v20.567C54.773,61.657,54.004,62.425,53.056,62.425z"></path> <g> <g> <path fill="#DEDEDD" d="M16.933,61.673c0.307,0.466,0.834,0.779,1.435,0.779h34.713c0.949,0,1.699-0.782,1.699-1.73v-20.57 c0-0.42-0.143-0.801-0.394-1.101L16.933,61.673z"></path> </g> </g> <ellipse fill="#F4C697" cx="35.205" cy="15.031" rx="8.582" ry="12.189"></ellipse> <path fill="#E7BB90" d="M35.282,2.842V27.22c-4.753,0.042-8.659-5.326-8.659-12.027C26.624,8.345,30.236,2.959,35.282,2.842z"></path> <path fill="#101010" d="M27.072,18.93c0,0-1.963-7.312,2.242-10.975c0,0,3.134,2.525,6.947,1.638c0,0,1.261-0.269,2.778-1.222 c0,0,2.979-1.263,3.957,1.653c1.042,3.109,0.512,6.269,0.575,8.158c0,0,1.393-3.148,1.438-7.939c0,0,0.224,0.847,0.313,1.893 c0,0,0.525-3.653-0.426-5.808c0,0-0.696-2.304-3.354-3.486c0,0-1.573-2.513-7.848-2.011c0,0-0.104-0.427,0.866-0.823 c0,0-4.837-0.308-5.932,2.98c0,0-3.917,0.86-3.552,7.671l0.414-1.271C25.493,9.388,24.73,15.799,27.072,18.93z"></path> <path fill="#101010" d="M40.117,20.499c-0.782-0.883-4.222-0.966-4.222-0.966h-0.104l-0.01,1.14l1.178-0.037 c1.56-0.056,2.236,0.256,2.559,0.741c0.146,0.219,0.209,0.477,0.211,0.739c0.015,1.435-0.962,2.609-0.962,2.609 c-0.587,0.75-1.207,0.877-1.602,0.871c-0.17-0.004-0.338-0.048-0.491-0.122c-0.764-0.372-1.161-0.886-1.161-0.886 s-0.391,0.514-1.156,0.886c-0.152,0.074-0.32,0.117-0.491,0.119c-0.393,0.008-1.013-0.121-1.6-0.871c0,0-0.978-1.179-0.963-2.613 c0.003-0.264,0.066-0.526,0.212-0.746c0.322-0.484,0.999-0.813,2.557-0.754l1.179,0.063l-0.01-1.14h-0.103 c0,0-3.441,0.083-4.223,0.966c0,0-0.81,0.673-0.355,2.606c0,0,0.482,1.694,0.776,2.565c0.069,0.205,0.165,0.39,0.289,0.565 c0.287,0.409,0.938,0.899,1.664,1.189c0,0,0.977,0.429,2.227,0.429c1.295,0,2.227-0.429,2.227-0.429 c0.815-0.294,1.379-0.786,1.667-1.196c0.123-0.175,0.219-0.368,0.288-0.572c0.292-0.871,0.775-2.553,0.775-2.553 C40.928,21.171,40.117,20.499,40.117,20.499z"></path> <ellipse fill="#303030" cx="31.476" cy="13.815" rx="1.627" ry="0.8"></ellipse> <ellipse fill="#303030" cx="39.477" cy="13.815" rx="1.627" ry="0.8"></ellipse> </g> </svg> 