<?xml version="1.0" encoding="UTF-8"?> <!-- Generator: Adobe Illustrator 16.0.0, SVG Export Plug-In . SVG Version: 6.00 Build 0) --> <svg xmlns="http://www.w3.org/2000/svg" xmlns:xlink="http://www.w3.org/1999/xlink" id="Layer_1" x="0px" y="0px" width="75px" height="66.94px" viewBox="0 0 75 66.94" xml:space="preserve"> <g> <circle fill="#259DC1" cx="33.471" cy="33.47" r="33.47"></circle> <g> <g> <g> <g> <path fill="#FFFFFF" d="M57.689,32.986c0,1.567-0.148,3.1-0.434,4.585c-1.113,5.813-4.307,10.889-8.775,14.423 c-3.26,2.575-7.199,4.334-11.508,4.954c-0.94,0.143-1.896,0.222-2.871,0.246c-0.212,0.005-0.424,0.01-0.635,0.01 c-1.493,0-2.954-0.135-4.371-0.394c-1.787-0.325-3.507-0.849-5.135-1.545c-0.645-0.275-1.275-0.578-1.891-0.907 c-6.063-3.235-10.585-8.978-12.188-15.841c-0.298-1.273-0.495-2.587-0.583-3.929c-0.034-0.53-0.053-1.064-0.053-1.603 c0-13.375,10.845-24.219,24.219-24.219c3.677,0,7.162,0.819,10.283,2.285c1.206,0.565,2.355,1.227,3.442,1.976 c6.148,4.234,10.242,11.234,10.485,19.203C57.686,32.481,57.689,32.733,57.689,32.986z"></path> </g> </g> </g> </g> <g> <g> <g> <g> <path fill="#FFFFFF" d="M33.468,60.319c-15.038,0-27.275-12.237-27.275-27.278C6.193,18,18.43,5.767,33.468,5.767 c15.044,0,27.278,12.234,27.278,27.275C60.746,48.082,48.512,60.319,33.468,60.319z M33.468,6.344 c-14.723,0-26.697,11.975-26.697,26.697c0,14.723,11.975,26.698,26.697,26.698s26.7-11.975,26.7-26.698 C60.168,18.319,48.19,6.344,33.468,6.344z"></path> </g> </g> </g> </g> <g> <path fill="#91CB48" d="M73.509,28.448l-10.705,7.314L31.42,57.204c-2.003-0.364-4.146-0.595-6.074-1.396 c-0.723-0.309-1.457-0.514-2.146-0.883c-7.552-3.36-12.701-10.966-13.649-18.108c-0.335-1.428-0.303-2.977-0.303-4.524 L47.666,6.043l7.183-4.907c1.56-1.066,3.688-0.666,4.754,0.895l14.801,21.663C75.469,25.254,75.068,27.382,73.509,28.448z"></path> <g> <g> <path fill="#FFFFFF" d="M37.803,40.854c-4.563,0-8.274-3.712-8.274-8.275c0-4.563,3.712-8.274,8.274-8.274 s8.275,3.712,8.275,8.274C46.078,37.142,42.365,40.854,37.803,40.854z M37.803,25.56c-3.87,0-7.019,3.149-7.019,7.019 c0,3.87,3.148,7.02,7.019,7.02s7.019-3.149,7.019-7.02C44.821,28.708,41.673,25.56,37.803,25.56z"></path> </g> <ellipse transform="matrix(-0.5642 -0.8256 0.8256 -0.5642 27.8873 79.6516)" fill="#FFFFFF" cx="34.964" cy="32.466" rx="1.694" ry="1.296"></ellipse> <path fill="#FFFFFF" d="M39.439,29.408c0.527,0.772,0.476,1.727-0.115,2.131c-0.591,0.404-1.498,0.104-2.026-0.668 c-0.527-0.772-0.477-1.726,0.114-2.13C38.004,28.337,38.912,28.636,39.439,29.408z"></path> <path fill="#FFFFFF" d="M35.892,35.91l5.71-3.9c0,0,1.985,2.669-0.979,4.694C37.656,38.73,35.892,35.91,35.892,35.91z"></path> </g> <g> <g> <path fill="#FFFFFF" d="M26.898,56.006l-0.412-0.178C15.331,51.021,11.865,44.812,9.889,36.35l-0.126-0.538L52.526,6.594 l0.471,0.563c0.006,0.007,0.916,1.057,2.124,1.057c0.771,0,1.549-0.432,2.311-1.285l0.688-0.769l11.076,16.212l-0.833,0.412 c-0.013,0.006-1.524,0.781-1.899,2.126c-0.203,0.726-0.033,1.528,0.503,2.385l0.413,0.658l-3.648,2.492L26.898,56.006z M11.59,36.52c1.86,7.596,5.151,13.237,15.126,17.646l36.099-25.051l2.408-1.645c-0.482-1.027-0.587-2.037-0.313-3.008 c0.355-1.257,1.279-2.136,1.956-2.635l-8.957-13.11c-0.877,0.739-1.812,1.113-2.788,1.113c-1.258,0-2.257-0.638-2.83-1.118 L11.59,36.52z"></path> </g> <g> <path fill="#FFFFFF" d="M53.093,25.177c-2.136,0-3.874-1.738-3.874-3.874s1.738-3.874,3.874-3.874s3.872,1.738,3.872,3.874 S55.229,25.177,53.093,25.177z M53.093,18.507c-1.542,0-2.797,1.255-2.797,2.797s1.255,2.797,2.797,2.797 c1.541,0,2.796-1.255,2.796-2.797S54.634,18.507,53.093,18.507z"></path> </g> <g> <path fill="#FFFFFF" d="M21.562,46.72c-2.136,0-3.874-1.737-3.874-3.873c0-2.137,1.738-3.874,3.874-3.874 s3.873,1.737,3.873,3.874C25.435,44.982,23.697,46.72,21.562,46.72z M21.562,40.05c-1.542,0-2.797,1.255-2.797,2.797 s1.255,2.797,2.797,2.797s2.796-1.255,2.796-2.797S23.104,40.05,21.562,40.05z"></path> </g> </g> </g> </g> </svg> 